<svg width="32" height="32" viewBox="0 0 32 32" fill="none" xmlns="http://www.w3.org/2000/svg" role="img" aria-labelledby="fav-title fav-desc">
  <defs>
    <linearGradient id="sg" x1="0" y1="0" x2="32" y2="32" gradientUnits="userSpaceOnUse">
      <stop offset="0%" stop-color="#0F8C7D"/>
      <stop offset="50%" stop-color="#0B6F63"/>
      <stop offset="100%" stop-color="#084C45"/>
    </linearGradient>
    <linearGradient id="gg" x1="0" y1="0" x2="20" y2="20" gradientUnits="userSpaceOnUse">
      <stop offset="0%" stop-color="#FCE38A"/>
      <stop offset="100%" stop-color="#F6D365"/>
    </linearGradient>
  </defs>
  <title id="fav-title">RankWoven</title>
  <desc id="fav-desc">RankWoven favicon</desc>
  <path d="M16 1L30 8V18C30 25 23 31 16 33C9 31 2 25 2 18V8L16 1Z" fill="url(#sg)"/>
  <path d="M8 14L13 10L16 19L19 10L24 14" stroke="#FFFFFF" stroke-width="2" stroke-linecap="round" stroke-linejoin="round" fill="none"/>
  <path d="M8 20L13 25L16 17L19 25L24 20" stroke="#E8F6F4" stroke-width="1.5" stroke-linecap="round" stroke-linejoin="round" fill="none"/>
  <path d="M18 25L25 18" stroke="url(#gg)" stroke-width="2.5" stroke-linecap="round"/>
  <path d="M22 18L25 18L25 21" stroke="url(#gg)" stroke-width="2.5" stroke-linecap="round" stroke-linejoin="round" fill="none"/>
</svg>
